# xmcd CD Database Entry
#
# Track frame offsets:
# 150
# 17662
# 30789
# 49517
# 62530
# 82838
# 97122
# 105078
# 125760
# 139116
# 151248
# 168204
# 184048
# 196953
#
# Disc length: 2783 seconds
#
# Revision: 4
# Processed by: cddbd v1.4PL0 Copyright (c) Steve Scherf et al.
# Submitted via: tcd 2.0b
#
DISCID=9e0add0e
DTITLE=Bim Skala Bim - Krinkle
DYEAR=1900
DGENRE=
TTITLE0=Step Up To Me
TTITLE1=Hardest Of The Parts
TTITLE2=Food For Soul
TTITLE3=Dislexic
TTITLE4=373
TTITLE5=Calm Down
TTITLE6=Kelp
TTITLE7=Set It Right
TTITLE8=Long Way
TTITLE9=Lost In Translation
TTITLE10=Hey Girl
TTITLE11=No Fly Zone
TTITLE12=Popcorn
TTITLE13=Deep Sea Diver
EXTD=
EXTT0=
EXTT1=
EXTT2=
EXTT3=
EXTT4=
EXTT5=
EXTT6=
EXTT7=
EXTT8=
EXTT9=
EXTT10=
EXTT11=
EXTT12=
EXTT13=
PLAYORDER=
